# xmcd
#
# Track frame offsets: 
#        150
#        21975
#        41100
#        60173
#        78623
#        104048
#        126193
#        141643
#        166693
#        191363
#        212253
#        233729
#
# Disc length: 3419 seconds
#
# Revision: 0
# Processed by: cddbd v1.5.2PL0 Copyright (c) Steve Scherf et al.
# Submitted via: ExactAudioCopy v0.95a5
#
DISCID=a20d590c
DTITLE=馨予 - 蓝色麦田
DYEAR=1900
DGENRE=Pop
TTITLE0=千里之外
TTITLE1=我不在乎等多久
TTITLE2=秋天不回来
TTITLE3=花田错
TTITLE4=白狐&书生
TTITLE5=给情人的摇篮曲
TTITLE6=小城故事
TTITLE7=爱一回 伤一回
TTITLE8=雪候鸟
TTITLE9=圆谎
TTITLE10=多久多久
TTITLE11=坦白
EXTD=
EXTT0=
EXTT1=
EXTT2=
EXTT3=
EXTT4=
EXTT5=
EXTT6=
EXTT7=
EXTT8=
EXTT9=
EXTT10=
EXTT11=
PLAYORDER=
